<svg xmlns="http://www.w3.org/2000/svg" width="151" height="34" fill="none"><path stroke="#9F0C03" stroke-opacity=".65" d="M.5.5h150v33H.5z"/><path stroke="#9F0C03" stroke-opacity=".65" d="M2.5 2.5h146v29H2.5z"/><path fill="#9F0C03" d="M25.208 24.712c.08 0 .12.048.12.144 0 .096-.04.144-.12.144-.32 0-.816-.016-1.488-.048a37.983 37.983 0 0 0-1.512-.048c-.4 0-.888.016-1.464.048-.544.032-.976.048-1.296.048-.064 0-.096-.048-.096-.144 0-.096.032-.144.096-.144.416 0 .712-.04.888-.12a.496.496 0 0 0 .288-.48c0-.272-.16-.728-.48-1.368l-2.496-4.92h-4.272l-1.704 3.768c-.208.464-.312.896-.312 1.296 0 .576.2 1.024.6 1.344.416.32.968.48 1.656.48.08 0 .12.048.12.144 0 .096-.04.144-.12.144-.288 0-.704-.016-1.248-.048a30.672 30.672 0 0 0-1.584-.048c-.432 0-.952.016-1.56.048-.544.032-.984.048-1.32.048-.064 0-.096-.048-.096-.144 0-.096.032-.144.096-.144.448 0 .824-.088 1.128-.264.304-.192.608-.52.912-.984.304-.48.664-1.184 1.08-2.112l5.208-11.448c.032-.048.104-.072.216-.072.128 0 .2.024.216.072l6 11.808c.56 1.136 1.024 1.92 1.392 2.352.368.432.752.648 1.152.648Zm-11.52-7.56h3.624l-1.92-3.792-1.704 3.792ZM44.932 10c.032 0 .048.048.048.144 0 .096-.016.144-.048.144-.64 0-1.144.256-1.512.768-.368.496-.552 1.168-.552 2.016V25.36c0 .048-.04.08-.12.096-.064.016-.112.008-.144-.024L31.348 12.616v9.336c0 .848.176 1.52.528 2.016.352.496.84.744 1.464.744.032 0 .048.048.048.144 0 .096-.016.144-.048.144-.448 0-.792-.008-1.032-.024l-1.296-.024-1.488.024c-.272.016-.664.024-1.176.024-.048 0-.072-.048-.072-.144 0-.096.024-.144.072-.144.704 0 1.256-.248 1.656-.744.416-.496.624-1.168.624-2.016V11.8c-.528-.576-.984-.968-1.368-1.176a2.184 2.184 0 0 0-1.152-.336c-.032 0-.048-.048-.048-.144 0-.096.016-.144.048-.144l1.008.024c.208.016.512.024.912.024l1.824-.024c.224-.016.496-.024.816-.024.128 0 .224.032.288.096.064.064.176.2.336.408.272.368.464.616.576.744l8.304 9.576v-7.752c0-.864-.176-1.544-.528-2.04-.352-.496-.84-.744-1.464-.744-.032 0-.048-.048-.048-.144 0-.096.016-.144.048-.144l1.032.024c.512.032.944.048 1.296.048.32 0 .768-.016 1.344-.048l1.08-.024Zm12.512 15.288c-1.76 0-3.296-.336-4.608-1.008-1.312-.672-2.312-1.584-3-2.736-.688-1.168-1.032-2.464-1.032-3.888 0-1.536.392-2.904 1.176-4.104.8-1.216 1.888-2.152 3.264-2.808 1.392-.672 2.944-1.008 4.656-1.008.752 0 1.512.064 2.28.192.768.112 1.384.264 1.848.456.144.048.232.112.264.192.048.064.08.184.096.36l.312 3.336c0 .048-.04.08-.12.096-.08.016-.136-.008-.168-.072-.56-1.232-1.336-2.192-2.328-2.88-.976-.688-2.096-1.032-3.36-1.032-1.632 0-2.88.568-3.744 1.704-.848 1.136-1.272 2.688-1.272 4.656 0 1.584.272 3 .816 4.248.544 1.232 1.296 2.192 2.256 2.88a5.626 5.626 0 0 0 3.264 1.008c.656 0 1.16-.072 1.512-.216.352-.144.608-.424.768-.84.16-.416.24-1.032.24-1.848 0-.832-.048-1.408-.144-1.728a.945.945 0 0 0-.624-.672c-.304-.112-.84-.168-1.608-.168-.096 0-.144-.064-.144-.192 0-.048.008-.088.024-.12.032-.048.064-.072.096-.072a58.6 58.6 0 0 0 3.288.12c.816 0 1.664-.024 2.544-.072.032 0 .056.024.072.072.032.032.048.064.048.096 0 .112-.04.168-.12.168-.288-.016-.488.04-.6.168-.112.112-.184.352-.216.72-.032.352-.048.992-.048 1.92 0 .72.024 1.232.072 1.536.064.304.096.496.096.576 0 .096-.024.16-.072.192a.55.55 0 0 1-.216.096c-2.064.448-3.92.672-5.568.672Zm23.538-12.216c0-.864-.2-1.544-.6-2.04-.384-.496-.928-.744-1.632-.744-.032 0-.048-.048-.048-.144 0-.096.016-.144.048-.144l1.152.024c.608.032 1.096.048 1.464.048.304 0 .744-.016 1.32-.048L83.79 10c.032 0 .048.048.048.144 0 .096-.016.144-.048.144-.624 0-1.112.248-1.464.744-.352.496-.528 1.176-.528 2.04v6.672c0 1.12-.248 2.104-.744 2.952-.496.848-1.2 1.504-2.112 1.968-.896.448-1.936.672-3.12.672-1.184 0-2.232-.224-3.144-.672a5.183 5.183 0 0 1-2.16-1.944c-.512-.864-.768-1.872-.768-3.024v-7.752c0-.48-.048-.832-.144-1.056a.72.72 0 0 0-.48-.456c-.224-.096-.584-.144-1.08-.144-.048 0-.072-.048-.072-.144 0-.096.024-.144.072-.144l1.272.024c.736.032 1.32.048 1.752.048.48 0 1.088-.016 1.824-.048L74.118 10c.048 0 .072.048.072.144 0 .096-.024.144-.072.144-.496 0-.864.048-1.104.144a.877.877 0 0 0-.48.504c-.08.224-.12.576-.12 1.056v6.864c0 1.904.376 3.312 1.128 4.224.752.912 1.816 1.368 3.192 1.368 1.328 0 2.368-.4 3.12-1.2.752-.816 1.128-1.976 1.128-3.48v-6.696Zm9.466-.648c0 .576.144 1.088.432 1.536.304.448.672.84 1.104 1.176.432.336 1.016.744 1.752 1.224.8.512 1.44.96 1.92 1.344.48.384.888.856 1.224 1.416.336.544.504 1.176.504 1.896 0 .832-.224 1.576-.672 2.232-.448.64-1.072 1.144-1.872 1.512-.784.352-1.664.528-2.64.528-.72 0-1.472-.096-2.256-.288-.784-.208-1.312-.432-1.584-.672a2.38 2.38 0 0 1-.192-.168.669.669 0 0 1-.048-.288l-.072-3.816v-.024c0-.064.04-.096.12-.096.08-.016.128.008.144.072.48.976.896 1.768 1.248 2.376a6.577 6.577 0 0 0 1.368 1.608c.56.464 1.192.696 1.896.696.64 0 1.168-.168 1.584-.504.416-.352.624-.944.624-1.776 0-.704-.16-1.32-.48-1.848a4.854 4.854 0 0 0-1.128-1.344c-.448-.368-1.064-.808-1.848-1.32-.768-.496-1.368-.92-1.8-1.272a5.23 5.23 0 0 1-1.08-1.272c-.304-.496-.456-1.08-.456-1.752 0-.848.24-1.56.72-2.136a4.287 4.287 0 0 1 1.896-1.296 6.846 6.846 0 0 1 2.424-.432c.56 0 1.128.056 1.704.168.576.096 1.04.216 1.392.36.144.064.24.136.288.216a.431.431 0 0 1 .072.264v3.528c0 .048-.04.088-.12.12-.08.016-.128 0-.144-.048l-.192-.456c-.4-1.008-.872-1.864-1.416-2.568-.528-.704-1.272-1.056-2.232-1.056-.64 0-1.168.184-1.584.552-.4.368-.6.904-.6 1.608ZM114.16 22.96c0 .416.032.72.096.912a.575.575 0 0 0 .36.36c.192.064.496.096.912.096h.816c1.248 0 2.328-.328 3.24-.984.912-.672 1.52-1.576 1.824-2.712 0-.032.032-.048.096-.048.032 0 .064.016.096.048.048.016.072.032.072.048-.144 1.584-.216 2.904-.216 3.96 0 .128-.032.224-.096.288-.048.048-.136.072-.264.072h-11.328c-.032 0-.048-.048-.048-.144 0-.096.016-.144.048-.144.512 0 .88-.04 1.104-.12a.72.72 0 0 0 .48-.456c.096-.24.144-.6.144-1.08V11.944c0-.48-.048-.832-.144-1.056a.72.72 0 0 0-.48-.456c-.24-.096-.608-.144-1.104-.144-.032 0-.048-.048-.048-.144 0-.096.016-.144.048-.144l1.224.024c.736.032 1.344.048 1.824.048s1.088-.016 1.824-.048l1.224-.024c.048 0 .072.048.072.144 0 .096-.024.144-.072.144-.496 0-.864.048-1.104.144-.24.08-.4.24-.48.48-.08.224-.12.576-.12 1.056V22.96Zm19.151 2.328c-1.488 0-2.816-.344-3.984-1.032a7.373 7.373 0 0 1-2.688-2.832c-.624-1.2-.936-2.504-.936-3.912 0-1.648.416-3.056 1.248-4.224a7.805 7.805 0 0 1 3.192-2.664c1.312-.592 2.648-.888 4.008-.888 1.52 0 2.856.36 4.008 1.08a7.067 7.067 0 0 1 2.64 2.808 7.78 7.78 0 0 1 .936 3.72 7.357 7.357 0 0 1-1.152 4.008 8.252 8.252 0 0 1-3.096 2.88 8.525 8.525 0 0 1-4.176 1.056Zm.792-.6c.896 0 1.696-.256 2.4-.768.72-.528 1.28-1.288 1.68-2.28.4-1.008.6-2.208.6-3.6 0-1.472-.224-2.784-.672-3.936-.448-1.168-1.096-2.08-1.944-2.736-.848-.656-1.84-.984-2.976-.984-1.456 0-2.576.552-3.36 1.656-.784 1.088-1.176 2.616-1.176 4.584 0 1.552.232 2.944.696 4.176.48 1.216 1.128 2.168 1.944 2.856.832.688 1.768 1.032 2.808 1.032Z"/></svg>